<?xml version="1.0" encoding="UTF-8" standalone="no"?>
<!DOCTYPE svg PUBLIC "-//W3C//DTD SVG 1.1//EN"
 "http://www.w3.org/Graphics/SVG/1.1/DTD/svg11.dtd">
<!-- Generated by graphviz version 13.1.0 (20250701.0955)
 -->
<!-- Title: src/driver_bmp280.h Pages: 1 -->
<svg width="638pt" height="232pt"
 viewBox="0.00 0.00 638.00 232.00" xmlns="http://www.w3.org/2000/svg" xmlns:xlink="http://www.w3.org/1999/xlink">
<g id="graph0" class="graph" transform="scale(1 1) rotate(0) translate(4 228)">
<title>src/driver_bmp280.h</title>
<!-- Node1 -->
<g id="Node000001" class="node">
<title>Node1</title>
<g id="a_Node000001"><a xlink:title="driver bmp280 header file">
<polygon fill="#999999" stroke="#666666" points="453,-224 348.5,-224 348.5,-204 453,-204 453,-224"/>
<text xml:space="preserve" text-anchor="middle" x="400.75" y="-210.5" font-family="Helvetica,sans-Serif" font-size="10.00">src/driver_bmp280.h</text>
</a>
</g>
</g>
<!-- Node2 -->
<g id="Node000002" class="node">
<title>Node2</title>
<g id="a_Node000002"><a xlink:href="driver__bmp280__interface_8h.html" target="_top" xlink:title="driver bmp280 interface header file">
<polygon fill="white" stroke="#666666" points="395.88,-168 275.62,-168 275.62,-136 395.88,-136 395.88,-168"/>
<text xml:space="preserve" text-anchor="start" x="283.62" y="-154.5" font-family="Helvetica,sans-Serif" font-size="10.00">interface/driver_bmp280</text>
<text xml:space="preserve" text-anchor="middle" x="335.75" y="-142.5" font-family="Helvetica,sans-Serif" font-size="10.00">_interface.h</text>
</a>
</g>
</g>
<!-- Node1&#45;&gt;Node2 -->
<g id="edge1_Node000001_Node000002" class="edge">
<title>Node1&#45;&gt;Node2</title>
<g id="a_edge1_Node000001_Node000002"><a xlink:title=" ">
<path fill="none" stroke="#63b8ff" d="M382.31,-195.98C372.9,-187.29 361.54,-176.81 352.4,-168.37"/>
<polygon fill="#63b8ff" stroke="#63b8ff" points="379.76,-198.39 389.48,-202.6 384.51,-193.24 379.76,-198.39"/>
</a>
</g>
</g>
<!-- Node12 -->
<g id="Node000012" class="node">
<title>Node12</title>
<g id="a_Node000012"><a xlink:href="driver__bmp280_8c.html" target="_top" xlink:title="driver bmp280 source file">
<polygon fill="white" stroke="#666666" points="518,-162 413.5,-162 413.5,-142 518,-142 518,-162"/>
<text xml:space="preserve" text-anchor="middle" x="465.75" y="-148.5" font-family="Helvetica,sans-Serif" font-size="10.00">src/driver_bmp280.c</text>
</a>
</g>
</g>
<!-- Node1&#45;&gt;Node12 -->
<g id="edge11_Node000001_Node000012" class="edge">
<title>Node1&#45;&gt;Node12</title>
<g id="a_edge11_Node000001_Node000012"><a xlink:title=" ">
<path fill="none" stroke="#63b8ff" d="M419.27,-195.9C431.19,-184.91 446.19,-171.05 455.88,-162.11"/>
<polygon fill="#63b8ff" stroke="#63b8ff" points="416.99,-193.24 412.02,-202.6 421.74,-198.39 416.99,-193.24"/>
</a>
</g>
</g>
<!-- Node3 -->
<g id="Node000003" class="node">
<title>Node3</title>
<g id="a_Node000003"><a xlink:href="driver__bmp280__basic_8h.html" target="_top" xlink:title="driver bmp280 basic header file">
<polygon fill="white" stroke="#666666" points="119.5,-100 0,-100 0,-68 119.5,-68 119.5,-100"/>
<text xml:space="preserve" text-anchor="start" x="8" y="-86.5" font-family="Helvetica,sans-Serif" font-size="10.00">example/driver_bmp280</text>
<text xml:space="preserve" text-anchor="middle" x="59.75" y="-74.5" font-family="Helvetica,sans-Serif" font-size="10.00">_basic.h</text>
</a>
</g>
</g>
<!-- Node2&#45;&gt;Node3 -->
<g id="edge2_Node000002_Node000003" class="edge">
<title>Node2&#45;&gt;Node3</title>
<g id="a_edge2_Node000002_Node000003"><a xlink:title=" ">
<path fill="none" stroke="#63b8ff" d="M264.06,-133.86C219.22,-123.13 162.13,-109.48 119.7,-99.34"/>
<polygon fill="#63b8ff" stroke="#63b8ff" points="263.17,-137.24 273.71,-136.16 264.8,-130.43 263.17,-137.24"/>
</a>
</g>
</g>
<!-- Node5 -->
<g id="Node000005" class="node">
<title>Node5</title>
<g id="a_Node000005"><a xlink:href="driver__bmp280__shot_8h.html" target="_top" xlink:title="driver bmp280 shot header file">
<polygon fill="white" stroke="#666666" points="257.5,-100 138,-100 138,-68 257.5,-68 257.5,-100"/>
<text xml:space="preserve" text-anchor="start" x="146" y="-86.5" font-family="Helvetica,sans-Serif" font-size="10.00">example/driver_bmp280</text>
<text xml:space="preserve" text-anchor="middle" x="197.75" y="-74.5" font-family="Helvetica,sans-Serif" font-size="10.00">_shot.h</text>
</a>
</g>
</g>
<!-- Node2&#45;&gt;Node5 -->
<g id="edge4_Node000002_Node000005" class="edge">
<title>Node2&#45;&gt;Node5</title>
<g id="a_edge4_Node000002_Node000005"><a xlink:title=" ">
<path fill="none" stroke="#63b8ff" d="M293.11,-130.61C272.72,-120.86 248.72,-109.38 229.9,-100.38"/>
<polygon fill="#63b8ff" stroke="#63b8ff" points="291.5,-133.72 302.03,-134.87 294.52,-127.4 291.5,-133.72"/>
</a>
</g>
</g>
<!-- Node7 -->
<g id="Node000007" class="node">
<title>Node7</title>
<g id="a_Node000007"><a xlink:href="driver__bmp280__interface__template_8c.html" target="_top" xlink:title="driver bmp280 interface template source file">
<polygon fill="white" stroke="#666666" points="395.88,-100 275.62,-100 275.62,-68 395.88,-68 395.88,-100"/>
<text xml:space="preserve" text-anchor="start" x="283.62" y="-86.5" font-family="Helvetica,sans-Serif" font-size="10.00">interface/driver_bmp280</text>
<text xml:space="preserve" text-anchor="middle" x="335.75" y="-74.5" font-family="Helvetica,sans-Serif" font-size="10.00">_interface_template.c</text>
</a>
</g>
</g>
<!-- Node2&#45;&gt;Node7 -->
<g id="edge6_Node000002_Node000007" class="edge">
<title>Node2&#45;&gt;Node7</title>
<g id="a_edge6_Node000002_Node000007"><a xlink:title=" ">
<path fill="none" stroke="#63b8ff" d="M335.75,-124.31C335.75,-116.12 335.75,-107.38 335.75,-100.22"/>
<polygon fill="#63b8ff" stroke="#63b8ff" points="332.25,-124.18 335.75,-134.18 339.25,-124.18 332.25,-124.18"/>
</a>
</g>
</g>
<!-- Node8 -->
<g id="Node000008" class="node">
<title>Node8</title>
<g id="a_Node000008"><a xlink:href="driver__bmp280__read__test_8h.html" target="_top" xlink:title="driver bmp280 read test header file">
<polygon fill="white" stroke="#666666" points="513.38,-100 414.12,-100 414.12,-68 513.38,-68 513.38,-100"/>
<text xml:space="preserve" text-anchor="start" x="422.12" y="-86.5" font-family="Helvetica,sans-Serif" font-size="10.00">test/driver_bmp280</text>
<text xml:space="preserve" text-anchor="middle" x="463.75" y="-74.5" font-family="Helvetica,sans-Serif" font-size="10.00">_read_test.h</text>
</a>
</g>
</g>
<!-- Node2&#45;&gt;Node8 -->
<g id="edge7_Node000002_Node000008" class="edge">
<title>Node2&#45;&gt;Node8</title>
<g id="a_edge7_Node000002_Node000008"><a xlink:title=" ">
<path fill="none" stroke="#63b8ff" d="M375.82,-130.34C394.62,-120.65 416.63,-109.3 433.93,-100.38"/>
<polygon fill="#63b8ff" stroke="#63b8ff" points="374.39,-127.14 367.11,-134.83 377.6,-133.36 374.39,-127.14"/>
</a>
</g>
</g>
<!-- Node10 -->
<g id="Node000010" class="node">
<title>Node10</title>
<g id="a_Node000010"><a xlink:href="driver__bmp280__register__test_8h.html" target="_top" xlink:title="driver bmp280 register test header file">
<polygon fill="white" stroke="#666666" points="630.38,-100 531.12,-100 531.12,-68 630.38,-68 630.38,-100"/>
<text xml:space="preserve" text-anchor="start" x="539.12" y="-86.5" font-family="Helvetica,sans-Serif" font-size="10.00">test/driver_bmp280</text>
<text xml:space="preserve" text-anchor="middle" x="580.75" y="-74.5" font-family="Helvetica,sans-Serif" font-size="10.00">_register_test.h</text>
</a>
</g>
</g>
<!-- Node2&#45;&gt;Node10 -->
<g id="edge9_Node000002_Node000010" class="edge">
<title>Node2&#45;&gt;Node10</title>
<g id="a_edge9_Node000002_Node000010"><a xlink:title=" ">
<path fill="none" stroke="#63b8ff" d="M404.24,-132.55C444.41,-121.73 494.25,-108.3 530.72,-98.48"/>
<polygon fill="#63b8ff" stroke="#63b8ff" points="403.4,-129.15 394.65,-135.13 405.22,-135.91 403.4,-129.15"/>
</a>
</g>
</g>
<!-- Node4 -->
<g id="Node000004" class="node">
<title>Node4</title>
<g id="a_Node000004"><a xlink:href="driver__bmp280__basic_8c.html" target="_top" xlink:title="driver bmp280 basic source file">
<polygon fill="white" stroke="#666666" points="119.5,-32 0,-32 0,0 119.5,0 119.5,-32"/>
<text xml:space="preserve" text-anchor="start" x="8" y="-18.5" font-family="Helvetica,sans-Serif" font-size="10.00">example/driver_bmp280</text>
<text xml:space="preserve" text-anchor="middle" x="59.75" y="-6.5" font-family="Helvetica,sans-Serif" font-size="10.00">_basic.c</text>
</a>
</g>
</g>
<!-- Node3&#45;&gt;Node4 -->
<g id="edge3_Node000003_Node000004" class="edge">
<title>Node3&#45;&gt;Node4</title>
<g id="a_edge3_Node000003_Node000004"><a xlink:title=" ">
<path fill="none" stroke="#63b8ff" d="M59.75,-56.31C59.75,-48.12 59.75,-39.38 59.75,-32.22"/>
<polygon fill="#63b8ff" stroke="#63b8ff" points="56.25,-56.18 59.75,-66.18 63.25,-56.18 56.25,-56.18"/>
</a>
</g>
</g>
<!-- Node6 -->
<g id="Node000006" class="node">
<title>Node6</title>
<g id="a_Node000006"><a xlink:href="driver__bmp280__shot_8c.html" target="_top" xlink:title="driver bmp280 shot source file">
<polygon fill="white" stroke="#666666" points="257.5,-32 138,-32 138,0 257.5,0 257.5,-32"/>
<text xml:space="preserve" text-anchor="start" x="146" y="-18.5" font-family="Helvetica,sans-Serif" font-size="10.00">example/driver_bmp280</text>
<text xml:space="preserve" text-anchor="middle" x="197.75" y="-6.5" font-family="Helvetica,sans-Serif" font-size="10.00">_shot.c</text>
</a>
</g>
</g>
<!-- Node5&#45;&gt;Node6 -->
<g id="edge5_Node000005_Node000006" class="edge">
<title>Node5&#45;&gt;Node6</title>
<g id="a_edge5_Node000005_Node000006"><a xlink:title=" ">
<path fill="none" stroke="#63b8ff" d="M197.75,-56.31C197.75,-48.12 197.75,-39.38 197.75,-32.22"/>
<polygon fill="#63b8ff" stroke="#63b8ff" points="194.25,-56.18 197.75,-66.18 201.25,-56.18 194.25,-56.18"/>
</a>
</g>
</g>
<!-- Node9 -->
<g id="Node000009" class="node">
<title>Node9</title>
<g id="a_Node000009"><a xlink:href="driver__bmp280__read__test_8c.html" target="_top" xlink:title="driver bmp280 read test source file">
<polygon fill="white" stroke="#666666" points="513.38,-32 414.12,-32 414.12,0 513.38,0 513.38,-32"/>
<text xml:space="preserve" text-anchor="start" x="422.12" y="-18.5" font-family="Helvetica,sans-Serif" font-size="10.00">test/driver_bmp280</text>
<text xml:space="preserve" text-anchor="middle" x="463.75" y="-6.5" font-family="Helvetica,sans-Serif" font-size="10.00">_read_test.c</text>
</a>
</g>
</g>
<!-- Node8&#45;&gt;Node9 -->
<g id="edge8_Node000008_Node000009" class="edge">
<title>Node8&#45;&gt;Node9</title>
<g id="a_edge8_Node000008_Node000009"><a xlink:title=" ">
<path fill="none" stroke="#63b8ff" d="M463.75,-56.31C463.75,-48.12 463.75,-39.38 463.75,-32.22"/>
<polygon fill="#63b8ff" stroke="#63b8ff" points="460.25,-56.18 463.75,-66.18 467.25,-56.18 460.25,-56.18"/>
</a>
</g>
</g>
<!-- Node11 -->
<g id="Node000011" class="node">
<title>Node11</title>
<g id="a_Node000011"><a xlink:href="driver__bmp280__register__test_8c.html" target="_top" xlink:title="driver bmp280 register test source file">
<polygon fill="white" stroke="#666666" points="630.38,-32 531.12,-32 531.12,0 630.38,0 630.38,-32"/>
<text xml:space="preserve" text-anchor="start" x="539.12" y="-18.5" font-family="Helvetica,sans-Serif" font-size="10.00">test/driver_bmp280</text>
<text xml:space="preserve" text-anchor="middle" x="580.75" y="-6.5" font-family="Helvetica,sans-Serif" font-size="10.00">_register_test.c</text>
</a>
</g>
</g>
<!-- Node10&#45;&gt;Node11 -->
<g id="edge10_Node000010_Node000011" class="edge">
<title>Node10&#45;&gt;Node11</title>
<g id="a_edge10_Node000010_Node000011"><a xlink:title=" ">
<path fill="none" stroke="#63b8ff" d="M580.75,-56.31C580.75,-48.12 580.75,-39.38 580.75,-32.22"/>
<polygon fill="#63b8ff" stroke="#63b8ff" points="577.25,-56.18 580.75,-66.18 584.25,-56.18 577.25,-56.18"/>
</a>
</g>
</g>
</g>
</svg>
