<?xml version="1.0" encoding="UTF-8" standalone="no"?>
<!DOCTYPE svg PUBLIC "-//W3C//DTD SVG 1.1//EN"
 "http://www.w3.org/Graphics/SVG/1.1/DTD/svg11.dtd">
<!-- Generated by graphviz version 13.1.0 (20250701.0955)
 -->
<!-- Title: bmp280 driver function Pages: 1 -->
<svg width="277pt" height="290pt"
 viewBox="0.00 0.00 277.00 290.00" xmlns="http://www.w3.org/2000/svg" xmlns:xlink="http://www.w3.org/1999/xlink">
<g id="graph0" class="graph" transform="scale(1 1) rotate(0) translate(4 286)">
<title>bmp280 driver function</title>
<!-- Node3 -->
<g id="Node000003" class="node">
<title>Node3</title>
<g id="a_Node000003"><a xlink:href="group__bmp280__base__driver.html" target="_top" xlink:title="bmp280 base driver modules">
<polygon fill="white" stroke="#666666" points="260.75,-282 159.25,-282 159.25,-250 260.75,-250 260.75,-282"/>
<text xml:space="preserve" text-anchor="start" x="167.25" y="-268.5" font-family="Helvetica,sans-Serif" font-size="10.00">bmp280 base driver</text>
<text xml:space="preserve" text-anchor="middle" x="210" y="-256.5" font-family="Helvetica,sans-Serif" font-size="10.00"> function</text>
</a>
</g>
</g>
<!-- Node1 -->
<g id="Node000001" class="node">
<title>Node1</title>
<g id="a_Node000001"><a xlink:title="bmp280 driver modules">
<polygon fill="#999999" stroke="#666666" points="115,-151 0,-151 0,-131 115,-131 115,-151"/>
<text xml:space="preserve" text-anchor="middle" x="57.5" y="-137.5" font-family="Helvetica,sans-Serif" font-size="10.00">bmp280 driver function</text>
</a>
</g>
</g>
<!-- Node1&#45;&gt;Node3 -->
<g id="edge2" class="edge">
<title>Node1&#45;&gt;Node3</title>
<path fill="none" stroke="black" d="M72.47,-160.44C89.09,-182.43 118.69,-218.14 151,-241 155.48,-244.17 160.42,-247.05 165.47,-249.64"/>
<polygon fill="black" stroke="black" points="75.44,-158.57 66.68,-152.62 69.81,-162.74 75.44,-158.57"/>
</g>
<!-- Node6 -->
<g id="Node000006" class="node">
<title>Node6</title>
<g id="a_Node000006"><a xlink:href="group__bmp280__example__driver.html" target="_top" xlink:title="bmp280 example driver modules">
<polygon fill="white" stroke="#666666" points="268.62,-232 151.38,-232 151.38,-200 268.62,-200 268.62,-232"/>
<text xml:space="preserve" text-anchor="start" x="159.38" y="-218.5" font-family="Helvetica,sans-Serif" font-size="10.00">bmp280 example driver</text>
<text xml:space="preserve" text-anchor="middle" x="210" y="-206.5" font-family="Helvetica,sans-Serif" font-size="10.00"> function</text>
</a>
</g>
</g>
<!-- Node1&#45;&gt;Node6 -->
<g id="edge5" class="edge">
<title>Node1&#45;&gt;Node6</title>
<path fill="none" stroke="black" d="M86.6,-157.03C104.77,-167.18 129.03,-180.35 151,-191 156.92,-193.87 163.25,-196.77 169.48,-199.52"/>
<polygon fill="black" stroke="black" points="88.43,-154.04 78,-152.19 85,-160.14 88.43,-154.04"/>
</g>
<!-- Node4 -->
<g id="Node000004" class="node">
<title>Node4</title>
<g id="a_Node000004"><a xlink:href="group__bmp280__extern__driver.html" target="_top" xlink:title="bmp280 extern driver modules">
<polygon fill="white" stroke="#666666" points="263.75,-182 156.25,-182 156.25,-150 263.75,-150 263.75,-182"/>
<text xml:space="preserve" text-anchor="start" x="164.25" y="-168.5" font-family="Helvetica,sans-Serif" font-size="10.00">bmp280 extern driver</text>
<text xml:space="preserve" text-anchor="middle" x="210" y="-156.5" font-family="Helvetica,sans-Serif" font-size="10.00"> function</text>
</a>
</g>
</g>
<!-- Node1&#45;&gt;Node4 -->
<g id="edge3" class="edge">
<title>Node1&#45;&gt;Node4</title>
<path fill="none" stroke="black" d="M126.47,-152.29C136.37,-153.94 146.44,-155.61 155.99,-157.19"/>
<polygon fill="black" stroke="black" points="127.33,-148.89 116.89,-150.7 126.18,-155.79 127.33,-148.89"/>
</g>
<!-- Node5 -->
<g id="Node000005" class="node">
<title>Node5</title>
<g id="a_Node000005"><a xlink:href="group__bmp280__interface__driver.html" target="_top" xlink:title="bmp280 interface driver modules">
<polygon fill="white" stroke="#666666" points="269,-132 151,-132 151,-100 269,-100 269,-132"/>
<text xml:space="preserve" text-anchor="start" x="159" y="-118.5" font-family="Helvetica,sans-Serif" font-size="10.00">bmp280 interface driver</text>
<text xml:space="preserve" text-anchor="middle" x="210" y="-106.5" font-family="Helvetica,sans-Serif" font-size="10.00"> function</text>
</a>
</g>
</g>
<!-- Node1&#45;&gt;Node5 -->
<g id="edge4" class="edge">
<title>Node1&#45;&gt;Node5</title>
<path fill="none" stroke="black" d="M126.58,-129.69C134.58,-128.36 142.68,-127.02 150.52,-125.71"/>
<polygon fill="black" stroke="black" points="126.18,-126.21 116.89,-131.3 127.33,-133.11 126.18,-126.21"/>
</g>
<!-- Node2 -->
<g id="Node000002" class="node">
<title>Node2</title>
<g id="a_Node000002"><a xlink:href="group__bmp280__link__driver.html" target="_top" xlink:title="bmp280 link driver modules">
<polygon fill="white" stroke="#666666" points="257.75,-82 162.25,-82 162.25,-50 257.75,-50 257.75,-82"/>
<text xml:space="preserve" text-anchor="start" x="170.25" y="-68.5" font-family="Helvetica,sans-Serif" font-size="10.00">bmp280 link driver</text>
<text xml:space="preserve" text-anchor="middle" x="210" y="-56.5" font-family="Helvetica,sans-Serif" font-size="10.00"> function</text>
</a>
</g>
</g>
<!-- Node1&#45;&gt;Node2 -->
<g id="edge1" class="edge">
<title>Node1&#45;&gt;Node2</title>
<path fill="none" stroke="black" d="M86.6,-124.97C104.77,-114.82 129.03,-101.65 151,-91 156.92,-88.13 163.25,-85.23 169.48,-82.48"/>
<polygon fill="black" stroke="black" points="85,-121.86 78,-129.81 88.43,-127.96 85,-121.86"/>
</g>
<!-- Node7 -->
<g id="Node000007" class="node">
<title>Node7</title>
<g id="a_Node000007"><a xlink:href="group__bmp280__test__driver.html" target="_top" xlink:title="bmp280 test driver modules">
<polygon fill="white" stroke="#666666" points="258.5,-32 161.5,-32 161.5,0 258.5,0 258.5,-32"/>
<text xml:space="preserve" text-anchor="start" x="169.5" y="-18.5" font-family="Helvetica,sans-Serif" font-size="10.00">bmp280 test driver</text>
<text xml:space="preserve" text-anchor="middle" x="210" y="-6.5" font-family="Helvetica,sans-Serif" font-size="10.00"> function</text>
</a>
</g>
</g>
<!-- Node1&#45;&gt;Node7 -->
<g id="edge6" class="edge">
<title>Node1&#45;&gt;Node7</title>
<path fill="none" stroke="black" d="M72.47,-121.56C89.09,-99.57 118.69,-63.86 151,-41 155.48,-37.83 160.42,-34.95 165.47,-32.36"/>
<polygon fill="black" stroke="black" points="69.81,-119.26 66.68,-129.38 75.44,-123.43 69.81,-119.26"/>
</g>
</g>
</svg>
