<?xml version="1.0" encoding="UTF-8" standalone="no"?>
<!DOCTYPE svg PUBLIC "-//W3C//DTD SVG 1.1//EN"
 "http://www.w3.org/Graphics/SVG/1.1/DTD/svg11.dtd">
<!-- Generated by graphviz version 13.1.0 (20250701.0955)
 -->
<!-- Title: bmp280_basic_init Pages: 1 -->
<svg width="282pt" height="834pt"
 viewBox="0.00 0.00 282.00 834.00" xmlns="http://www.w3.org/2000/svg" xmlns:xlink="http://www.w3.org/1999/xlink">
<g id="graph0" class="graph" transform="scale(1 1) rotate(0) translate(4 830)">
<title>bmp280_basic_init</title>
<!-- Node1 -->
<g id="Node000001" class="node">
<title>Node1</title>
<g id="a_Node000001"><a xlink:title="basic example init">
<polygon fill="#999999" stroke="#666666" points="97,-417 0,-417 0,-397 97,-397 97,-417"/>
<text xml:space="preserve" text-anchor="middle" x="48.5" y="-403.5" font-family="Helvetica,sans-Serif" font-size="10.00">bmp280_basic_init</text>
</a>
</g>
</g>
<!-- Node2 -->
<g id="Node000002" class="node">
<title>Node2</title>
<g id="a_Node000002"><a xlink:href="group__bmp280__base__driver.html#ga57713a6c81c4125e8f199fbea349a0fa" target="_top" xlink:title="close the chip">
<polygon fill="white" stroke="#666666" points="242.75,-826 163.75,-826 163.75,-806 242.75,-806 242.75,-826"/>
<text xml:space="preserve" text-anchor="middle" x="203.25" y="-812.5" font-family="Helvetica,sans-Serif" font-size="10.00">bmp280_deinit</text>
</a>
</g>
</g>
<!-- Node1&#45;&gt;Node2 -->
<g id="edge1_Node000001_Node000002" class="edge">
<title>Node1&#45;&gt;Node2</title>
<g id="a_edge1_Node000001_Node000002"><a xlink:title=" ">
<path fill="none" stroke="#63b8ff" d="M50.27,-417.18C54.7,-472.77 78.55,-739.37 133,-797 138.35,-802.66 145.21,-806.69 152.53,-809.55"/>
<polygon fill="#63b8ff" stroke="#63b8ff" points="151.43,-812.87 162.02,-812.5 153.51,-806.19 151.43,-812.87"/>
</a>
</g>
</g>
<!-- Node3 -->
<g id="Node000003" class="node">
<title>Node3</title>
<g id="a_Node000003"><a xlink:href="group__bmp280__base__driver.html#gaf269b001d67d12b2ad68fd8f049716f7" target="_top" xlink:title="initialize the chip">
<polygon fill="white" stroke="#666666" points="237.5,-788 169,-788 169,-768 237.5,-768 237.5,-788"/>
<text xml:space="preserve" text-anchor="middle" x="203.25" y="-774.5" font-family="Helvetica,sans-Serif" font-size="10.00">bmp280_init</text>
</a>
</g>
</g>
<!-- Node1&#45;&gt;Node3 -->
<g id="edge2_Node000001_Node000003" class="edge">
<title>Node1&#45;&gt;Node3</title>
<g id="a_edge2_Node000001_Node000003"><a xlink:title=" ">
<path fill="none" stroke="#63b8ff" d="M50.53,-417.21C56.01,-469.57 83.37,-707.61 133,-759 139.59,-765.82 148.38,-770.27 157.47,-773.15"/>
<polygon fill="#63b8ff" stroke="#63b8ff" points="156.58,-776.53 167.13,-775.57 158.28,-769.74 156.58,-776.53"/>
</a>
</g>
</g>
<!-- Node4 -->
<g id="Node000004" class="node">
<title>Node4</title>
<g id="a_Node000004"><a xlink:href="group__bmp280__interface__driver.html#gaa52121dc463140311b6388b766b67c56" target="_top" xlink:title="interface print format data">
<polygon fill="white" stroke="#666666" points="265.62,-750 140.88,-750 140.88,-718 265.62,-718 265.62,-750"/>
<text xml:space="preserve" text-anchor="start" x="148.88" y="-736.5" font-family="Helvetica,sans-Serif" font-size="10.00">bmp280_interface_debug</text>
<text xml:space="preserve" text-anchor="middle" x="203.25" y="-724.5" font-family="Helvetica,sans-Serif" font-size="10.00">_print</text>
</a>
</g>
</g>
<!-- Node1&#45;&gt;Node4 -->
<g id="edge3_Node000001_Node000004" class="edge">
<title>Node1&#45;&gt;Node4</title>
<g id="a_edge3_Node000001_Node000004"><a xlink:title=" ">
<path fill="none" stroke="#63b8ff" d="M49.17,-417.45C48.44,-459.81 51.31,-620.8 133,-709 133.47,-709.51 133.96,-710.02 134.46,-710.51"/>
<polygon fill="#63b8ff" stroke="#63b8ff" points="132.15,-713.14 142.14,-716.67 136.53,-707.68 132.15,-713.14"/>
</a>
</g>
</g>
<!-- Node5 -->
<g id="Node000005" class="node">
<title>Node5</title>
<g id="a_Node000005"><a xlink:href="group__bmp280__interface__driver.html#ga92e63bfad37f98468a9a76a00cc53544" target="_top" xlink:title="interface delay ms">
<polygon fill="white" stroke="#666666" points="273.5,-700 133,-700 133,-680 273.5,-680 273.5,-700"/>
<text xml:space="preserve" text-anchor="middle" x="203.25" y="-686.5" font-family="Helvetica,sans-Serif" font-size="10.00">bmp280_interface_delay_ms</text>
</a>
</g>
</g>
<!-- Node1&#45;&gt;Node5 -->
<g id="edge4_Node000001_Node000005" class="edge">
<title>Node1&#45;&gt;Node5</title>
<g id="a_edge4_Node000001_Node000005"><a xlink:title=" ">
<path fill="none" stroke="#63b8ff" d="M49.47,-417.38C49.96,-456.7 57.14,-598.01 133,-671 133.9,-671.86 134.83,-672.69 135.8,-673.48"/>
<polygon fill="#63b8ff" stroke="#63b8ff" points="133.66,-676.27 143.95,-678.8 137.49,-670.41 133.66,-676.27"/>
</a>
</g>
</g>
<!-- Node6 -->
<g id="Node000006" class="node">
<title>Node6</title>
<g id="a_Node000006"><a xlink:href="group__bmp280__interface__driver.html#ga87c9a01af4848c94dd5b5bf37ea13d16" target="_top" xlink:title="interface iic bus deinit">
<polygon fill="white" stroke="#666666" points="257.38,-662 149.12,-662 149.12,-630 257.38,-630 257.38,-662"/>
<text xml:space="preserve" text-anchor="start" x="157.12" y="-648.5" font-family="Helvetica,sans-Serif" font-size="10.00">bmp280_interface_iic</text>
<text xml:space="preserve" text-anchor="middle" x="203.25" y="-636.5" font-family="Helvetica,sans-Serif" font-size="10.00">_deinit</text>
</a>
</g>
</g>
<!-- Node1&#45;&gt;Node6 -->
<g id="edge5_Node000001_Node000006" class="edge">
<title>Node1&#45;&gt;Node6</title>
<g id="a_edge5_Node000001_Node000006"><a xlink:title=" ">
<path fill="none" stroke="#63b8ff" d="M50.51,-417.1C54.44,-450.89 71.6,-561.15 133,-621 135,-622.95 137.17,-624.75 139.45,-626.41"/>
<polygon fill="#63b8ff" stroke="#63b8ff" points="137.14,-629.1 147.49,-631.36 140.81,-623.14 137.14,-629.1"/>
</a>
</g>
</g>
<!-- Node7 -->
<g id="Node000007" class="node">
<title>Node7</title>
<g id="a_Node000007"><a xlink:href="group__bmp280__interface__driver.html#gaa239c922c3c9f3e7b819706fc2209940" target="_top" xlink:title="interface iic bus init">
<polygon fill="white" stroke="#666666" points="266.38,-612 140.12,-612 140.12,-592 266.38,-592 266.38,-612"/>
<text xml:space="preserve" text-anchor="middle" x="203.25" y="-598.5" font-family="Helvetica,sans-Serif" font-size="10.00">bmp280_interface_iic_init</text>
</a>
</g>
</g>
<!-- Node1&#45;&gt;Node7 -->
<g id="edge6_Node000001_Node000007" class="edge">
<title>Node1&#45;&gt;Node7</title>
<g id="a_edge6_Node000001_Node000007"><a xlink:title=" ">
<path fill="none" stroke="#63b8ff" d="M51.26,-417.15C57.05,-447.32 78.32,-537.15 133,-583 134.28,-584.08 135.62,-585.09 137.01,-586.05"/>
<polygon fill="#63b8ff" stroke="#63b8ff" points="135,-588.93 145.42,-590.83 138.46,-582.85 135,-588.93"/>
</a>
</g>
</g>
<!-- Node8 -->
<g id="Node000008" class="node">
<title>Node8</title>
<g id="a_Node000008"><a xlink:href="group__bmp280__interface__driver.html#ga84f4b158699467900501307216c6d331" target="_top" xlink:title="interface iic bus read">
<polygon fill="white" stroke="#666666" points="269.38,-574 137.12,-574 137.12,-554 269.38,-554 269.38,-574"/>
<text xml:space="preserve" text-anchor="middle" x="203.25" y="-560.5" font-family="Helvetica,sans-Serif" font-size="10.00">bmp280_interface_iic_read</text>
</a>
</g>
</g>
<!-- Node1&#45;&gt;Node8 -->
<g id="edge7_Node000001_Node000008" class="edge">
<title>Node1&#45;&gt;Node8</title>
<g id="a_edge7_Node000001_Node000008"><a xlink:title=" ">
<path fill="none" stroke="#63b8ff" d="M52.67,-417.13C61.21,-442.72 87.2,-510.39 133,-545 134.57,-546.19 136.22,-547.3 137.91,-548.35"/>
<polygon fill="#63b8ff" stroke="#63b8ff" points="136.3,-551.45 146.79,-552.91 139.5,-545.23 136.3,-551.45"/>
</a>
</g>
</g>
<!-- Node9 -->
<g id="Node000009" class="node">
<title>Node9</title>
<g id="a_Node000009"><a xlink:href="group__bmp280__interface__driver.html#ga789f2e299281c558712443ae8df70373" target="_top" xlink:title="interface iic bus write">
<polygon fill="white" stroke="#666666" points="257.38,-536 149.12,-536 149.12,-504 257.38,-504 257.38,-536"/>
<text xml:space="preserve" text-anchor="start" x="157.12" y="-522.5" font-family="Helvetica,sans-Serif" font-size="10.00">bmp280_interface_iic</text>
<text xml:space="preserve" text-anchor="middle" x="203.25" y="-510.5" font-family="Helvetica,sans-Serif" font-size="10.00">_write</text>
</a>
</g>
</g>
<!-- Node1&#45;&gt;Node9 -->
<g id="edge8_Node000001_Node000009" class="edge">
<title>Node1&#45;&gt;Node9</title>
<g id="a_edge8_Node000001_Node000009"><a xlink:title=" ">
<path fill="none" stroke="#63b8ff" d="M56.82,-417.45C70.05,-435.63 99.68,-473.22 133,-495 134.85,-496.21 136.76,-497.36 138.72,-498.47"/>
<polygon fill="#63b8ff" stroke="#63b8ff" points="136.99,-501.52 147.49,-502.94 140.17,-495.28 136.99,-501.52"/>
</a>
</g>
</g>
<!-- Node10 -->
<g id="Node000010" class="node">
<title>Node10</title>
<g id="a_Node000010"><a xlink:href="group__bmp280__interface__driver.html#gaf888f8ba4556d246f6259aa5388355df" target="_top" xlink:title="interface spi bus deinit">
<polygon fill="white" stroke="#666666" points="258.88,-486 147.62,-486 147.62,-454 258.88,-454 258.88,-486"/>
<text xml:space="preserve" text-anchor="start" x="155.62" y="-472.5" font-family="Helvetica,sans-Serif" font-size="10.00">bmp280_interface_spi</text>
<text xml:space="preserve" text-anchor="middle" x="203.25" y="-460.5" font-family="Helvetica,sans-Serif" font-size="10.00">_deinit</text>
</a>
</g>
</g>
<!-- Node1&#45;&gt;Node10 -->
<g id="edge9_Node000001_Node000010" class="edge">
<title>Node1&#45;&gt;Node10</title>
<g id="a_edge9_Node000001_Node000010"><a xlink:title=" ">
<path fill="none" stroke="#63b8ff" d="M71.27,-417.49C87.99,-425.41 111.76,-436.35 133,-445 136.77,-446.54 140.68,-448.08 144.63,-449.6"/>
<polygon fill="#63b8ff" stroke="#63b8ff" points="143.11,-452.77 153.7,-453.03 145.59,-446.22 143.11,-452.77"/>
</a>
</g>
</g>
<!-- Node11 -->
<g id="Node000011" class="node">
<title>Node11</title>
<g id="a_Node000011"><a xlink:href="group__bmp280__interface__driver.html#ga7c9753847863bcfb25bf2d80cf163cd1" target="_top" xlink:title="interface spi bus init">
<polygon fill="white" stroke="#666666" points="267.88,-436 138.62,-436 138.62,-416 267.88,-416 267.88,-436"/>
<text xml:space="preserve" text-anchor="middle" x="203.25" y="-422.5" font-family="Helvetica,sans-Serif" font-size="10.00">bmp280_interface_spi_init</text>
</a>
</g>
</g>
<!-- Node1&#45;&gt;Node11 -->
<g id="edge10_Node000001_Node000011" class="edge">
<title>Node1&#45;&gt;Node11</title>
<g id="a_edge10_Node000001_Node000011"><a xlink:title=" ">
<path fill="none" stroke="#63b8ff" d="M97.41,-412.96C106.82,-414.13 116.9,-415.38 126.96,-416.63"/>
<polygon fill="#63b8ff" stroke="#63b8ff" points="126.4,-420.09 136.76,-417.85 127.27,-413.15 126.4,-420.09"/>
</a>
</g>
</g>
<!-- Node12 -->
<g id="Node000012" class="node">
<title>Node12</title>
<g id="a_Node000012"><a xlink:href="group__bmp280__interface__driver.html#ga510d39266bf6afa2582dfb07c0217503" target="_top" xlink:title="interface spi bus read">
<polygon fill="white" stroke="#666666" points="270.88,-398 135.62,-398 135.62,-378 270.88,-378 270.88,-398"/>
<text xml:space="preserve" text-anchor="middle" x="203.25" y="-384.5" font-family="Helvetica,sans-Serif" font-size="10.00">bmp280_interface_spi_read</text>
</a>
</g>
</g>
<!-- Node1&#45;&gt;Node12 -->
<g id="edge11_Node000001_Node000012" class="edge">
<title>Node1&#45;&gt;Node12</title>
<g id="a_edge11_Node000001_Node000012"><a xlink:title=" ">
<path fill="none" stroke="#63b8ff" d="M97.41,-401.04C105.84,-399.99 114.81,-398.88 123.81,-397.76"/>
<polygon fill="#63b8ff" stroke="#63b8ff" points="124.21,-401.23 133.7,-396.53 123.35,-394.29 124.21,-401.23"/>
</a>
</g>
</g>
<!-- Node13 -->
<g id="Node000013" class="node">
<title>Node13</title>
<g id="a_Node000013"><a xlink:href="group__bmp280__interface__driver.html#ga88000c6e5f7433439fce4e3d0e8fdf82" target="_top" xlink:title="interface spi bus write">
<polygon fill="white" stroke="#666666" points="258.88,-360 147.62,-360 147.62,-328 258.88,-328 258.88,-360"/>
<text xml:space="preserve" text-anchor="start" x="155.62" y="-346.5" font-family="Helvetica,sans-Serif" font-size="10.00">bmp280_interface_spi</text>
<text xml:space="preserve" text-anchor="middle" x="203.25" y="-334.5" font-family="Helvetica,sans-Serif" font-size="10.00">_write</text>
</a>
</g>
</g>
<!-- Node1&#45;&gt;Node13 -->
<g id="edge12_Node000001_Node000013" class="edge">
<title>Node1&#45;&gt;Node13</title>
<g id="a_edge12_Node000001_Node000013"><a xlink:title=" ">
<path fill="none" stroke="#63b8ff" d="M71.27,-396.51C87.99,-388.59 111.76,-377.65 133,-369 136.77,-367.46 140.68,-365.92 144.63,-364.4"/>
<polygon fill="#63b8ff" stroke="#63b8ff" points="145.59,-367.78 153.7,-360.97 143.11,-361.23 145.59,-367.78"/>
</a>
</g>
</g>
<!-- Node14 -->
<g id="Node000014" class="node">
<title>Node14</title>
<g id="a_Node000014"><a xlink:href="group__bmp280__base__driver.html#gaa048b3e5bab38cf44c527c45c117ccc6" target="_top" xlink:title="set the iic address pin">
<polygon fill="white" stroke="#666666" points="258.88,-310 147.62,-310 147.62,-290 258.88,-290 258.88,-310"/>
<text xml:space="preserve" text-anchor="middle" x="203.25" y="-296.5" font-family="Helvetica,sans-Serif" font-size="10.00">bmp280_set_addr_pin</text>
</a>
</g>
</g>
<!-- Node1&#45;&gt;Node14 -->
<g id="edge13_Node000001_Node000014" class="edge">
<title>Node1&#45;&gt;Node14</title>
<g id="a_edge13_Node000001_Node000014"><a xlink:title=" ">
<path fill="none" stroke="#63b8ff" d="M56.44,-396.57C69.3,-378.08 98.67,-339.56 133,-319 135.48,-317.51 138.08,-316.14 140.75,-314.87"/>
<polygon fill="#63b8ff" stroke="#63b8ff" points="142.06,-318.12 149.97,-311.07 139.39,-311.65 142.06,-318.12"/>
</a>
</g>
</g>
<!-- Node15 -->
<g id="Node000015" class="node">
<title>Node15</title>
<g id="a_Node000015"><a xlink:href="group__bmp280__base__driver.html#ga1bcbccae9e9dfafe30063762bb3c9273" target="_top" xlink:title="set filter">
<polygon fill="white" stroke="#666666" points="249.88,-272 156.62,-272 156.62,-252 249.88,-252 249.88,-272"/>
<text xml:space="preserve" text-anchor="middle" x="203.25" y="-258.5" font-family="Helvetica,sans-Serif" font-size="10.00">bmp280_set_filter</text>
</a>
</g>
</g>
<!-- Node1&#45;&gt;Node15 -->
<g id="edge14_Node000001_Node000015" class="edge">
<title>Node1&#45;&gt;Node15</title>
<g id="a_edge14_Node000001_Node000015"><a xlink:title=" ">
<path fill="none" stroke="#63b8ff" d="M53.35,-396.7C62.9,-372.57 90.06,-312.09 133,-281 136.86,-278.2 141.12,-275.82 145.56,-273.78"/>
<polygon fill="#63b8ff" stroke="#63b8ff" points="146.72,-277.09 154.76,-270.2 144.17,-270.57 146.72,-277.09"/>
</a>
</g>
</g>
<!-- Node16 -->
<g id="Node000016" class="node">
<title>Node16</title>
<g id="a_Node000016"><a xlink:href="group__bmp280__base__driver.html#ga78e4115dd214adcbab776cfa8abf55b1" target="_top" xlink:title="set the interface">
<polygon fill="white" stroke="#666666" points="259.25,-234 147.25,-234 147.25,-214 259.25,-214 259.25,-234"/>
<text xml:space="preserve" text-anchor="middle" x="203.25" y="-220.5" font-family="Helvetica,sans-Serif" font-size="10.00">bmp280_set_interface</text>
</a>
</g>
</g>
<!-- Node1&#45;&gt;Node16 -->
<g id="edge15_Node000001_Node000016" class="edge">
<title>Node1&#45;&gt;Node16</title>
<g id="a_edge15_Node000001_Node000016"><a xlink:title=" ">
<path fill="none" stroke="#63b8ff" d="M51.68,-396.71C58.34,-367.8 81.24,-285.19 133,-243 134.33,-241.92 135.71,-240.9 137.15,-239.93"/>
<polygon fill="#63b8ff" stroke="#63b8ff" points="138.8,-243.02 145.86,-235.11 135.41,-236.89 138.8,-243.02"/>
</a>
</g>
</g>
<!-- Node17 -->
<g id="Node000017" class="node">
<title>Node17</title>
<g id="a_Node000017"><a xlink:href="group__bmp280__base__driver.html#ga34965dadc0e62e182a17c5f439f51bf3" target="_top" xlink:title="set mode">
<polygon fill="white" stroke="#666666" points="252.5,-196 154,-196 154,-176 252.5,-176 252.5,-196"/>
<text xml:space="preserve" text-anchor="middle" x="203.25" y="-182.5" font-family="Helvetica,sans-Serif" font-size="10.00">bmp280_set_mode</text>
</a>
</g>
</g>
<!-- Node1&#45;&gt;Node17 -->
<g id="edge16_Node000001_Node000017" class="edge">
<title>Node1&#45;&gt;Node17</title>
<g id="a_edge16_Node000001_Node000017"><a xlink:title=" ">
<path fill="none" stroke="#63b8ff" d="M50.59,-396.81C54.68,-363.79 72.12,-258.75 133,-205 136.13,-202.24 139.62,-199.87 143.33,-197.85"/>
<polygon fill="#63b8ff" stroke="#63b8ff" points="144.49,-201.17 152.18,-193.87 141.62,-194.78 144.49,-201.17"/>
</a>
</g>
</g>
<!-- Node18 -->
<g id="Node000018" class="node">
<title>Node18</title>
<g id="a_Node000018"><a xlink:href="group__bmp280__base__driver.html#ga99c091395f80ce8cdb5d751eed54aeb0" target="_top" xlink:title="set pressure oversampling">
<polygon fill="white" stroke="#666666" points="259.25,-158 147.25,-158 147.25,-126 259.25,-126 259.25,-158"/>
<text xml:space="preserve" text-anchor="start" x="155.25" y="-144.5" font-family="Helvetica,sans-Serif" font-size="10.00">bmp280_set_pressure</text>
<text xml:space="preserve" text-anchor="middle" x="203.25" y="-132.5" font-family="Helvetica,sans-Serif" font-size="10.00">_oversampling</text>
</a>
</g>
</g>
<!-- Node1&#45;&gt;Node18 -->
<g id="edge17_Node000001_Node000018" class="edge">
<title>Node1&#45;&gt;Node18</title>
<g id="a_edge17_Node000001_Node000018"><a xlink:title=" ">
<path fill="none" stroke="#63b8ff" d="M50.04,-396.73C52.5,-360.19 65.7,-235.09 133,-167 134.39,-165.59 135.86,-164.27 137.41,-163.01"/>
<polygon fill="#63b8ff" stroke="#63b8ff" points="139.31,-165.95 145.65,-157.46 135.4,-160.14 139.31,-165.95"/>
</a>
</g>
</g>
<!-- Node19 -->
<g id="Node000019" class="node">
<title>Node19</title>
<g id="a_Node000019"><a xlink:href="group__bmp280__base__driver.html#ga8b3da0ddfce2a80f6cf2f13f07f0c16c" target="_top" xlink:title="set spi wire">
<polygon fill="white" stroke="#666666" points="258.5,-108 148,-108 148,-88 258.5,-88 258.5,-108"/>
<text xml:space="preserve" text-anchor="middle" x="203.25" y="-94.5" font-family="Helvetica,sans-Serif" font-size="10.00">bmp280_set_spi_wire</text>
</a>
</g>
</g>
<!-- Node1&#45;&gt;Node19 -->
<g id="edge18_Node000001_Node000019" class="edge">
<title>Node1&#45;&gt;Node19</title>
<g id="a_edge18_Node000001_Node000019"><a xlink:title=" ">
<path fill="none" stroke="#63b8ff" d="M49.14,-396.78C48.24,-355.37 50.61,-198.36 133,-117 134.6,-115.42 136.31,-113.97 138.12,-112.64"/>
<polygon fill="#63b8ff" stroke="#63b8ff" points="139.68,-115.78 146.52,-107.69 136.13,-109.75 139.68,-115.78"/>
</a>
</g>
</g>
<!-- Node20 -->
<g id="Node000020" class="node">
<title>Node20</title>
<g id="a_Node000020"><a xlink:href="group__bmp280__base__driver.html#gad229b38572b7fe4e4296d51f7d1ed326" target="_top" xlink:title="set standby time">
<polygon fill="white" stroke="#666666" points="269.75,-70 136.75,-70 136.75,-50 269.75,-50 269.75,-70"/>
<text xml:space="preserve" text-anchor="middle" x="203.25" y="-56.5" font-family="Helvetica,sans-Serif" font-size="10.00">bmp280_set_standby_time</text>
</a>
</g>
</g>
<!-- Node1&#45;&gt;Node20 -->
<g id="edge19_Node000001_Node000020" class="edge">
<title>Node1&#45;&gt;Node20</title>
<g id="a_edge19_Node000001_Node000020"><a xlink:title=" ">
<path fill="none" stroke="#63b8ff" d="M50.71,-396.83C56.89,-346.71 86.38,-126.49 133,-79 133.75,-78.24 134.52,-77.51 135.31,-76.81"/>
<polygon fill="#63b8ff" stroke="#63b8ff" points="137.2,-79.76 143.43,-71.19 133.21,-74.01 137.2,-79.76"/>
</a>
</g>
</g>
<!-- Node21 -->
<g id="Node000021" class="node">
<title>Node21</title>
<g id="a_Node000021"><a xlink:href="group__bmp280__base__driver.html#gafb9b6307c62debdff42af03f2abc5b0c" target="_top" xlink:title="set temperatue oversampling">
<polygon fill="white" stroke="#666666" points="264.88,-32 141.62,-32 141.62,0 264.88,0 264.88,-32"/>
<text xml:space="preserve" text-anchor="start" x="149.62" y="-18.5" font-family="Helvetica,sans-Serif" font-size="10.00">bmp280_set_temperatue</text>
<text xml:space="preserve" text-anchor="middle" x="203.25" y="-6.5" font-family="Helvetica,sans-Serif" font-size="10.00">_oversampling</text>
</a>
</g>
</g>
<!-- Node1&#45;&gt;Node21 -->
<g id="edge20_Node000001_Node000021" class="edge">
<title>Node1&#45;&gt;Node21</title>
<g id="a_edge20_Node000001_Node000021"><a xlink:title=" ">
<path fill="none" stroke="#63b8ff" d="M50.51,-396.82C56,-343.49 83.77,-96.65 133,-41 133.36,-40.59 133.73,-40.19 134.1,-39.8"/>
<polygon fill="#63b8ff" stroke="#63b8ff" points="136.28,-42.54 141.68,-33.43 131.77,-37.18 136.28,-42.54"/>
</a>
</g>
</g>
</g>
</svg>
