<?xml version="1.0" encoding="UTF-8" standalone="no"?>
<!DOCTYPE svg PUBLIC "-//W3C//DTD SVG 1.1//EN"
 "http://www.w3.org/Graphics/SVG/1.1/DTD/svg11.dtd">
<!-- Generated by graphviz version 13.1.0 (20250701.0955)
 -->
<!-- Title: bmp280_shot_init Pages: 1 -->
<svg width="277pt" height="834pt"
 viewBox="0.00 0.00 277.00 834.00" xmlns="http://www.w3.org/2000/svg" xmlns:xlink="http://www.w3.org/1999/xlink">
<g id="graph0" class="graph" transform="scale(1 1) rotate(0) translate(4 830)">
<title>bmp280_shot_init</title>
<!-- Node1 -->
<g id="Node000001" class="node">
<title>Node1</title>
<g id="a_Node000001"><a xlink:title="shot example init">
<polygon fill="#999999" stroke="#666666" points="92.5,-417 0,-417 0,-397 92.5,-397 92.5,-417"/>
<text xml:space="preserve" text-anchor="middle" x="46.25" y="-403.5" font-family="Helvetica,sans-Serif" font-size="10.00">bmp280_shot_init</text>
</a>
</g>
</g>
<!-- Node2 -->
<g id="Node000002" class="node">
<title>Node2</title>
<g id="a_Node000002"><a xlink:href="group__bmp280__base__driver.html#ga57713a6c81c4125e8f199fbea349a0fa" target="_top" xlink:title="close the chip">
<polygon fill="white" stroke="#666666" points="238.25,-826 159.25,-826 159.25,-806 238.25,-806 238.25,-826"/>
<text xml:space="preserve" text-anchor="middle" x="198.75" y="-812.5" font-family="Helvetica,sans-Serif" font-size="10.00">bmp280_deinit</text>
</a>
</g>
</g>
<!-- Node1&#45;&gt;Node2 -->
<g id="edge1_Node000001_Node000002" class="edge">
<title>Node1&#45;&gt;Node2</title>
<g id="a_edge1_Node000001_Node000002"><a xlink:title=" ">
<path fill="none" stroke="#63b8ff" d="M47.96,-417.17C52.05,-472.75 74.28,-739.28 128.5,-797 133.83,-802.68 140.69,-806.72 148.01,-809.58"/>
<polygon fill="#63b8ff" stroke="#63b8ff" points="146.9,-812.9 157.49,-812.53 148.98,-806.21 146.9,-812.9"/>
</a>
</g>
</g>
<!-- Node3 -->
<g id="Node000003" class="node">
<title>Node3</title>
<g id="a_Node000003"><a xlink:href="group__bmp280__base__driver.html#gaf269b001d67d12b2ad68fd8f049716f7" target="_top" xlink:title="initialize the chip">
<polygon fill="white" stroke="#666666" points="233,-788 164.5,-788 164.5,-768 233,-768 233,-788"/>
<text xml:space="preserve" text-anchor="middle" x="198.75" y="-774.5" font-family="Helvetica,sans-Serif" font-size="10.00">bmp280_init</text>
</a>
</g>
</g>
<!-- Node1&#45;&gt;Node3 -->
<g id="edge2_Node000001_Node000003" class="edge">
<title>Node1&#45;&gt;Node3</title>
<g id="a_edge2_Node000001_Node000003"><a xlink:title=" ">
<path fill="none" stroke="#63b8ff" d="M48.21,-417.2C53.33,-469.55 79.1,-707.53 128.5,-759 135.07,-765.84 143.85,-770.3 152.94,-773.18"/>
<polygon fill="#63b8ff" stroke="#63b8ff" points="152.05,-776.56 162.6,-775.6 153.75,-769.77 152.05,-776.56"/>
</a>
</g>
</g>
<!-- Node4 -->
<g id="Node000004" class="node">
<title>Node4</title>
<g id="a_Node000004"><a xlink:href="group__bmp280__interface__driver.html#gaa52121dc463140311b6388b766b67c56" target="_top" xlink:title="interface print format data">
<polygon fill="white" stroke="#666666" points="261.12,-750 136.38,-750 136.38,-718 261.12,-718 261.12,-750"/>
<text xml:space="preserve" text-anchor="start" x="144.38" y="-736.5" font-family="Helvetica,sans-Serif" font-size="10.00">bmp280_interface_debug</text>
<text xml:space="preserve" text-anchor="middle" x="198.75" y="-724.5" font-family="Helvetica,sans-Serif" font-size="10.00">_print</text>
</a>
</g>
</g>
<!-- Node1&#45;&gt;Node4 -->
<g id="edge3_Node000001_Node000004" class="edge">
<title>Node1&#45;&gt;Node4</title>
<g id="a_edge3_Node000001_Node000004"><a xlink:title=" ">
<path fill="none" stroke="#63b8ff" d="M46.84,-417.44C45.74,-459.78 47.27,-620.68 128.5,-709 128.97,-709.51 129.46,-710.02 129.95,-710.51"/>
<polygon fill="#63b8ff" stroke="#63b8ff" points="127.64,-713.14 137.62,-716.69 132.03,-707.69 127.64,-713.14"/>
</a>
</g>
</g>
<!-- Node5 -->
<g id="Node000005" class="node">
<title>Node5</title>
<g id="a_Node000005"><a xlink:href="group__bmp280__interface__driver.html#ga92e63bfad37f98468a9a76a00cc53544" target="_top" xlink:title="interface delay ms">
<polygon fill="white" stroke="#666666" points="269,-700 128.5,-700 128.5,-680 269,-680 269,-700"/>
<text xml:space="preserve" text-anchor="middle" x="198.75" y="-686.5" font-family="Helvetica,sans-Serif" font-size="10.00">bmp280_interface_delay_ms</text>
</a>
</g>
</g>
<!-- Node1&#45;&gt;Node5 -->
<g id="edge4_Node000001_Node000005" class="edge">
<title>Node1&#45;&gt;Node5</title>
<g id="a_edge4_Node000001_Node000005"><a xlink:title=" ">
<path fill="none" stroke="#63b8ff" d="M47.13,-417.37C47.25,-456.66 53.1,-597.89 128.5,-671 129.4,-671.87 130.33,-672.7 131.29,-673.49"/>
<polygon fill="#63b8ff" stroke="#63b8ff" points="129.14,-676.27 139.42,-678.83 132.99,-670.42 129.14,-676.27"/>
</a>
</g>
</g>
<!-- Node6 -->
<g id="Node000006" class="node">
<title>Node6</title>
<g id="a_Node000006"><a xlink:href="group__bmp280__interface__driver.html#ga87c9a01af4848c94dd5b5bf37ea13d16" target="_top" xlink:title="interface iic bus deinit">
<polygon fill="white" stroke="#666666" points="252.88,-662 144.62,-662 144.62,-630 252.88,-630 252.88,-662"/>
<text xml:space="preserve" text-anchor="start" x="152.62" y="-648.5" font-family="Helvetica,sans-Serif" font-size="10.00">bmp280_interface_iic</text>
<text xml:space="preserve" text-anchor="middle" x="198.75" y="-636.5" font-family="Helvetica,sans-Serif" font-size="10.00">_deinit</text>
</a>
</g>
</g>
<!-- Node1&#45;&gt;Node6 -->
<g id="edge5_Node000001_Node000006" class="edge">
<title>Node1&#45;&gt;Node6</title>
<g id="a_edge5_Node000001_Node000006"><a xlink:title=" ">
<path fill="none" stroke="#63b8ff" d="M48.15,-417.1C51.68,-450.87 67.59,-561.08 128.5,-621 130.49,-622.96 132.65,-624.77 134.93,-626.44"/>
<polygon fill="#63b8ff" stroke="#63b8ff" points="132.61,-629.12 142.96,-631.4 136.29,-623.16 132.61,-629.12"/>
</a>
</g>
</g>
<!-- Node7 -->
<g id="Node000007" class="node">
<title>Node7</title>
<g id="a_Node000007"><a xlink:href="group__bmp280__interface__driver.html#gaa239c922c3c9f3e7b819706fc2209940" target="_top" xlink:title="interface iic bus init">
<polygon fill="white" stroke="#666666" points="261.88,-612 135.62,-612 135.62,-592 261.88,-592 261.88,-612"/>
<text xml:space="preserve" text-anchor="middle" x="198.75" y="-598.5" font-family="Helvetica,sans-Serif" font-size="10.00">bmp280_interface_iic_init</text>
</a>
</g>
</g>
<!-- Node1&#45;&gt;Node7 -->
<g id="edge6_Node000001_Node000007" class="edge">
<title>Node1&#45;&gt;Node7</title>
<g id="a_edge6_Node000001_Node000007"><a xlink:title=" ">
<path fill="none" stroke="#63b8ff" d="M48.88,-417.15C54.26,-447.3 74.33,-537.09 128.5,-583 129.78,-584.08 131.11,-585.1 132.49,-586.07"/>
<polygon fill="#63b8ff" stroke="#63b8ff" points="130.47,-588.94 140.89,-590.87 133.95,-582.87 130.47,-588.94"/>
</a>
</g>
</g>
<!-- Node8 -->
<g id="Node000008" class="node">
<title>Node8</title>
<g id="a_Node000008"><a xlink:href="group__bmp280__interface__driver.html#ga84f4b158699467900501307216c6d331" target="_top" xlink:title="interface iic bus read">
<polygon fill="white" stroke="#666666" points="264.88,-574 132.62,-574 132.62,-554 264.88,-554 264.88,-574"/>
<text xml:space="preserve" text-anchor="middle" x="198.75" y="-560.5" font-family="Helvetica,sans-Serif" font-size="10.00">bmp280_interface_iic_read</text>
</a>
</g>
</g>
<!-- Node1&#45;&gt;Node8 -->
<g id="edge7_Node000001_Node000008" class="edge">
<title>Node1&#45;&gt;Node8</title>
<g id="a_edge7_Node000001_Node000008"><a xlink:title=" ">
<path fill="none" stroke="#63b8ff" d="M50.25,-417.12C58.36,-442.71 83.24,-510.36 128.5,-545 130.03,-546.17 131.63,-547.27 133.28,-548.3"/>
<polygon fill="#63b8ff" stroke="#63b8ff" points="131.42,-551.28 141.9,-552.8 134.66,-545.07 131.42,-551.28"/>
</a>
</g>
</g>
<!-- Node9 -->
<g id="Node000009" class="node">
<title>Node9</title>
<g id="a_Node000009"><a xlink:href="group__bmp280__interface__driver.html#ga789f2e299281c558712443ae8df70373" target="_top" xlink:title="interface iic bus write">
<polygon fill="white" stroke="#666666" points="252.88,-536 144.62,-536 144.62,-504 252.88,-504 252.88,-536"/>
<text xml:space="preserve" text-anchor="start" x="152.62" y="-522.5" font-family="Helvetica,sans-Serif" font-size="10.00">bmp280_interface_iic</text>
<text xml:space="preserve" text-anchor="middle" x="198.75" y="-510.5" font-family="Helvetica,sans-Serif" font-size="10.00">_write</text>
</a>
</g>
</g>
<!-- Node1&#45;&gt;Node9 -->
<g id="edge8_Node000001_Node000009" class="edge">
<title>Node1&#45;&gt;Node9</title>
<g id="a_edge8_Node000001_Node000009"><a xlink:title=" ">
<path fill="none" stroke="#63b8ff" d="M54.3,-417.46C67.07,-435.66 95.75,-473.27 128.5,-495 130.34,-496.22 132.24,-497.39 134.19,-498.51"/>
<polygon fill="#63b8ff" stroke="#63b8ff" points="132.45,-501.55 142.95,-503 135.65,-495.32 132.45,-501.55"/>
</a>
</g>
</g>
<!-- Node10 -->
<g id="Node000010" class="node">
<title>Node10</title>
<g id="a_Node000010"><a xlink:href="group__bmp280__interface__driver.html#gaf888f8ba4556d246f6259aa5388355df" target="_top" xlink:title="interface spi bus deinit">
<polygon fill="white" stroke="#666666" points="254.38,-486 143.12,-486 143.12,-454 254.38,-454 254.38,-486"/>
<text xml:space="preserve" text-anchor="start" x="151.12" y="-472.5" font-family="Helvetica,sans-Serif" font-size="10.00">bmp280_interface_spi</text>
<text xml:space="preserve" text-anchor="middle" x="198.75" y="-460.5" font-family="Helvetica,sans-Serif" font-size="10.00">_deinit</text>
</a>
</g>
</g>
<!-- Node1&#45;&gt;Node10 -->
<g id="edge9_Node000001_Node000010" class="edge">
<title>Node1&#45;&gt;Node10</title>
<g id="a_edge9_Node000001_Node000010"><a xlink:title=" ">
<path fill="none" stroke="#63b8ff" d="M68.06,-417.37C84.34,-425.33 107.63,-436.37 128.5,-445 132.27,-446.56 136.17,-448.11 140.11,-449.65"/>
<polygon fill="#63b8ff" stroke="#63b8ff" points="138.59,-452.81 149.18,-453.09 141.07,-446.27 138.59,-452.81"/>
</a>
</g>
</g>
<!-- Node11 -->
<g id="Node000011" class="node">
<title>Node11</title>
<g id="a_Node000011"><a xlink:href="group__bmp280__interface__driver.html#ga7c9753847863bcfb25bf2d80cf163cd1" target="_top" xlink:title="interface spi bus init">
<polygon fill="white" stroke="#666666" points="263.38,-436 134.12,-436 134.12,-416 263.38,-416 263.38,-436"/>
<text xml:space="preserve" text-anchor="middle" x="198.75" y="-422.5" font-family="Helvetica,sans-Serif" font-size="10.00">bmp280_interface_spi_init</text>
</a>
</g>
</g>
<!-- Node1&#45;&gt;Node11 -->
<g id="edge10_Node000001_Node000011" class="edge">
<title>Node1&#45;&gt;Node11</title>
<g id="a_edge10_Node000001_Node000011"><a xlink:title=" ">
<path fill="none" stroke="#63b8ff" d="M92.81,-412.75C102.18,-413.93 112.28,-415.21 122.38,-416.48"/>
<polygon fill="#63b8ff" stroke="#63b8ff" points="121.88,-419.95 132.24,-417.73 122.76,-413 121.88,-419.95"/>
</a>
</g>
</g>
<!-- Node12 -->
<g id="Node000012" class="node">
<title>Node12</title>
<g id="a_Node000012"><a xlink:href="group__bmp280__interface__driver.html#ga510d39266bf6afa2582dfb07c0217503" target="_top" xlink:title="interface spi bus read">
<polygon fill="white" stroke="#666666" points="266.38,-398 131.12,-398 131.12,-378 266.38,-378 266.38,-398"/>
<text xml:space="preserve" text-anchor="middle" x="198.75" y="-384.5" font-family="Helvetica,sans-Serif" font-size="10.00">bmp280_interface_spi_read</text>
</a>
</g>
</g>
<!-- Node1&#45;&gt;Node12 -->
<g id="edge11_Node000001_Node000012" class="edge">
<title>Node1&#45;&gt;Node12</title>
<g id="a_edge11_Node000001_Node000012"><a xlink:title=" ">
<path fill="none" stroke="#63b8ff" d="M92.81,-401.25C101.3,-400.18 110.39,-399.03 119.54,-397.87"/>
<polygon fill="#63b8ff" stroke="#63b8ff" points="119.7,-401.38 129.18,-396.66 118.82,-394.44 119.7,-401.38"/>
</a>
</g>
</g>
<!-- Node13 -->
<g id="Node000013" class="node">
<title>Node13</title>
<g id="a_Node000013"><a xlink:href="group__bmp280__interface__driver.html#ga88000c6e5f7433439fce4e3d0e8fdf82" target="_top" xlink:title="interface spi bus write">
<polygon fill="white" stroke="#666666" points="254.38,-360 143.12,-360 143.12,-328 254.38,-328 254.38,-360"/>
<text xml:space="preserve" text-anchor="start" x="151.12" y="-346.5" font-family="Helvetica,sans-Serif" font-size="10.00">bmp280_interface_spi</text>
<text xml:space="preserve" text-anchor="middle" x="198.75" y="-334.5" font-family="Helvetica,sans-Serif" font-size="10.00">_write</text>
</a>
</g>
</g>
<!-- Node1&#45;&gt;Node13 -->
<g id="edge12_Node000001_Node000013" class="edge">
<title>Node1&#45;&gt;Node13</title>
<g id="a_edge12_Node000001_Node000013"><a xlink:title=" ">
<path fill="none" stroke="#63b8ff" d="M68.06,-396.63C84.34,-388.67 107.63,-377.63 128.5,-369 132.27,-367.44 136.17,-365.89 140.11,-364.35"/>
<polygon fill="#63b8ff" stroke="#63b8ff" points="141.07,-367.73 149.18,-360.91 138.59,-361.19 141.07,-367.73"/>
</a>
</g>
</g>
<!-- Node14 -->
<g id="Node000014" class="node">
<title>Node14</title>
<g id="a_Node000014"><a xlink:href="group__bmp280__base__driver.html#gaa048b3e5bab38cf44c527c45c117ccc6" target="_top" xlink:title="set the iic address pin">
<polygon fill="white" stroke="#666666" points="254.38,-310 143.12,-310 143.12,-290 254.38,-290 254.38,-310"/>
<text xml:space="preserve" text-anchor="middle" x="198.75" y="-296.5" font-family="Helvetica,sans-Serif" font-size="10.00">bmp280_set_addr_pin</text>
</a>
</g>
</g>
<!-- Node1&#45;&gt;Node14 -->
<g id="edge13_Node000001_Node000014" class="edge">
<title>Node1&#45;&gt;Node14</title>
<g id="a_edge13_Node000001_Node000014"><a xlink:title=" ">
<path fill="none" stroke="#63b8ff" d="M53.94,-396.56C66.34,-378.06 94.75,-339.53 128.5,-319 130.97,-317.5 133.56,-316.11 136.23,-314.83"/>
<polygon fill="#63b8ff" stroke="#63b8ff" points="137.54,-318.08 145.43,-311 134.85,-311.62 137.54,-318.08"/>
</a>
</g>
</g>
<!-- Node15 -->
<g id="Node000015" class="node">
<title>Node15</title>
<g id="a_Node000015"><a xlink:href="group__bmp280__base__driver.html#ga1bcbccae9e9dfafe30063762bb3c9273" target="_top" xlink:title="set filter">
<polygon fill="white" stroke="#666666" points="245.38,-272 152.12,-272 152.12,-252 245.38,-252 245.38,-272"/>
<text xml:space="preserve" text-anchor="middle" x="198.75" y="-258.5" font-family="Helvetica,sans-Serif" font-size="10.00">bmp280_set_filter</text>
</a>
</g>
</g>
<!-- Node1&#45;&gt;Node15 -->
<g id="edge14_Node000001_Node000015" class="edge">
<title>Node1&#45;&gt;Node15</title>
<g id="a_edge14_Node000001_Node000015"><a xlink:title=" ">
<path fill="none" stroke="#63b8ff" d="M50.91,-396.7C60.03,-372.57 86.11,-312.1 128.5,-281 132.51,-278.06 136.95,-275.57 141.59,-273.47"/>
<polygon fill="#63b8ff" stroke="#63b8ff" points="142.5,-276.87 150.57,-270 139.98,-270.34 142.5,-276.87"/>
</a>
</g>
</g>
<!-- Node16 -->
<g id="Node000016" class="node">
<title>Node16</title>
<g id="a_Node000016"><a xlink:href="group__bmp280__base__driver.html#ga78e4115dd214adcbab776cfa8abf55b1" target="_top" xlink:title="set the interface">
<polygon fill="white" stroke="#666666" points="254.75,-234 142.75,-234 142.75,-214 254.75,-214 254.75,-234"/>
<text xml:space="preserve" text-anchor="middle" x="198.75" y="-220.5" font-family="Helvetica,sans-Serif" font-size="10.00">bmp280_set_interface</text>
</a>
</g>
</g>
<!-- Node1&#45;&gt;Node16 -->
<g id="edge15_Node000001_Node000016" class="edge">
<title>Node1&#45;&gt;Node16</title>
<g id="a_edge15_Node000001_Node000016"><a xlink:title=" ">
<path fill="none" stroke="#63b8ff" d="M49.28,-396.72C55.53,-367.82 77.25,-285.24 128.5,-243 129.79,-241.93 131.14,-240.93 132.53,-239.98"/>
<polygon fill="#63b8ff" stroke="#63b8ff" points="133.98,-243.18 140.98,-235.23 130.54,-237.08 133.98,-243.18"/>
</a>
</g>
</g>
<!-- Node17 -->
<g id="Node000017" class="node">
<title>Node17</title>
<g id="a_Node000017"><a xlink:href="group__bmp280__base__driver.html#ga34965dadc0e62e182a17c5f439f51bf3" target="_top" xlink:title="set mode">
<polygon fill="white" stroke="#666666" points="248,-196 149.5,-196 149.5,-176 248,-176 248,-196"/>
<text xml:space="preserve" text-anchor="middle" x="198.75" y="-182.5" font-family="Helvetica,sans-Serif" font-size="10.00">bmp280_set_mode</text>
</a>
</g>
</g>
<!-- Node1&#45;&gt;Node17 -->
<g id="edge16_Node000001_Node000017" class="edge">
<title>Node1&#45;&gt;Node17</title>
<g id="a_edge16_Node000001_Node000017"><a xlink:title=" ">
<path fill="none" stroke="#63b8ff" d="M48.22,-396.82C51.91,-363.82 68.12,-258.83 128.5,-205 131.61,-202.22 135.1,-199.85 138.8,-197.82"/>
<polygon fill="#63b8ff" stroke="#63b8ff" points="139.96,-201.13 147.64,-193.83 137.08,-194.75 139.96,-201.13"/>
</a>
</g>
</g>
<!-- Node18 -->
<g id="Node000018" class="node">
<title>Node18</title>
<g id="a_Node000018"><a xlink:href="group__bmp280__base__driver.html#ga99c091395f80ce8cdb5d751eed54aeb0" target="_top" xlink:title="set pressure oversampling">
<polygon fill="white" stroke="#666666" points="254.75,-158 142.75,-158 142.75,-126 254.75,-126 254.75,-158"/>
<text xml:space="preserve" text-anchor="start" x="150.75" y="-144.5" font-family="Helvetica,sans-Serif" font-size="10.00">bmp280_set_pressure</text>
<text xml:space="preserve" text-anchor="middle" x="198.75" y="-132.5" font-family="Helvetica,sans-Serif" font-size="10.00">_oversampling</text>
</a>
</g>
</g>
<!-- Node1&#45;&gt;Node18 -->
<g id="edge17_Node000001_Node000018" class="edge">
<title>Node1&#45;&gt;Node18</title>
<g id="a_edge17_Node000001_Node000018"><a xlink:title=" ">
<path fill="none" stroke="#63b8ff" d="M47.68,-396.73C49.76,-360.22 61.68,-235.17 128.5,-167 129.88,-165.59 131.35,-164.26 132.89,-163"/>
<polygon fill="#63b8ff" stroke="#63b8ff" points="134.8,-165.93 141.12,-157.43 130.88,-160.14 134.8,-165.93"/>
</a>
</g>
</g>
<!-- Node19 -->
<g id="Node000019" class="node">
<title>Node19</title>
<g id="a_Node000019"><a xlink:href="group__bmp280__base__driver.html#ga8b3da0ddfce2a80f6cf2f13f07f0c16c" target="_top" xlink:title="set spi wire">
<polygon fill="white" stroke="#666666" points="254,-108 143.5,-108 143.5,-88 254,-88 254,-108"/>
<text xml:space="preserve" text-anchor="middle" x="198.75" y="-94.5" font-family="Helvetica,sans-Serif" font-size="10.00">bmp280_set_spi_wire</text>
</a>
</g>
</g>
<!-- Node1&#45;&gt;Node19 -->
<g id="edge18_Node000001_Node000019" class="edge">
<title>Node1&#45;&gt;Node19</title>
<g id="a_edge18_Node000001_Node000019"><a xlink:title=" ">
<path fill="none" stroke="#63b8ff" d="M46.79,-396.51C45.55,-354.7 46.76,-198.3 128.5,-117 130.09,-115.42 131.8,-113.96 133.6,-112.63"/>
<polygon fill="#63b8ff" stroke="#63b8ff" points="135.17,-115.77 141.99,-107.66 131.6,-109.75 135.17,-115.77"/>
</a>
</g>
</g>
<!-- Node20 -->
<g id="Node000020" class="node">
<title>Node20</title>
<g id="a_Node000020"><a xlink:href="group__bmp280__base__driver.html#gad229b38572b7fe4e4296d51f7d1ed326" target="_top" xlink:title="set standby time">
<polygon fill="white" stroke="#666666" points="265.25,-70 132.25,-70 132.25,-50 265.25,-50 265.25,-70"/>
<text xml:space="preserve" text-anchor="middle" x="198.75" y="-56.5" font-family="Helvetica,sans-Serif" font-size="10.00">bmp280_set_standby_time</text>
</a>
</g>
</g>
<!-- Node1&#45;&gt;Node20 -->
<g id="edge19_Node000001_Node000020" class="edge">
<title>Node1&#45;&gt;Node20</title>
<g id="a_edge19_Node000001_Node000020"><a xlink:title=" ">
<path fill="none" stroke="#63b8ff" d="M48.39,-396.83C54.21,-346.72 82.11,-126.56 128.5,-79 129.22,-78.26 129.97,-77.54 130.75,-76.86"/>
<polygon fill="#63b8ff" stroke="#63b8ff" points="132.41,-79.97 138.58,-71.36 128.39,-74.24 132.41,-79.97"/>
</a>
</g>
</g>
<!-- Node21 -->
<g id="Node000021" class="node">
<title>Node21</title>
<g id="a_Node000021"><a xlink:href="group__bmp280__base__driver.html#gafb9b6307c62debdff42af03f2abc5b0c" target="_top" xlink:title="set temperatue oversampling">
<polygon fill="white" stroke="#666666" points="260.38,-32 137.12,-32 137.12,0 260.38,0 260.38,-32"/>
<text xml:space="preserve" text-anchor="start" x="145.12" y="-18.5" font-family="Helvetica,sans-Serif" font-size="10.00">bmp280_set_temperatue</text>
<text xml:space="preserve" text-anchor="middle" x="198.75" y="-6.5" font-family="Helvetica,sans-Serif" font-size="10.00">_oversampling</text>
</a>
</g>
</g>
<!-- Node1&#45;&gt;Node21 -->
<g id="edge20_Node000001_Node000021" class="edge">
<title>Node1&#45;&gt;Node21</title>
<g id="a_edge20_Node000001_Node000021"><a xlink:title=" ">
<path fill="none" stroke="#63b8ff" d="M48.19,-396.82C53.33,-343.5 79.5,-96.72 128.5,-41 128.86,-40.59 129.22,-40.19 129.6,-39.8"/>
<polygon fill="#63b8ff" stroke="#63b8ff" points="131.78,-42.54 137.16,-33.41 127.26,-37.19 131.78,-42.54"/>
</a>
</g>
</g>
</g>
</svg>
